<svg width="24" height="24" viewBox="0 0 24 24" fill="none" xmlns="http://www.w3.org/2000/svg">
<g clip-path="url(#clip0_620_2)">
<path d="M24 12C24 18.6274 18.6274 24 12 24C5.37258 24 0 18.6274 0 12C0 5.37258 5.37258 0 12 0C18.6274 0 24 5.37258 24 12Z" fill="#323D53"/>
<path d="M12 6C8.6916 6 6 8.6916 6 12C6 15.3084 8.6916 18 12 18C15.3084 18 18 15.3084 18 12C18 8.6916 15.3084 6 12 6ZM7.2 12C7.2 11.4606 7.2936 10.9428 7.4586 10.4586L8.4 11.4L9.6 12.6V13.8L10.8 15L11.4 15.6V16.7586C9.0366 16.4616 7.2 14.4432 7.2 12ZM15.798 14.9238C15.4062 14.6082 14.8122 14.4 14.4 14.4V13.8C14.4 13.4817 14.2736 13.1765 14.0485 12.9515C13.8235 12.7264 13.5183 12.6 13.2 12.6H10.8V10.8C11.1183 10.8 11.4235 10.6736 11.6485 10.4485C11.8736 10.2235 12 9.91826 12 9.6V9H12.6C12.9183 9 13.2235 8.87357 13.4485 8.64853C13.6736 8.42348 13.8 8.11826 13.8 7.8V7.5534C15.5568 8.2668 16.8 9.99 16.8 12C16.7999 13.0588 16.4474 14.0875 15.798 14.9238Z" fill="#627EEA"/>
</g>
<defs>
<clipPath id="clip0_620_2">
<rect width="24" height="24" fill="white"/>
</clipPath>
</defs>
</svg>
