<svg width="1505" height="1505" viewBox="0 0 1505 1505" fill="none" xmlns="http://www.w3.org/2000/svg">
<circle cx="752.5" cy="752.5" r="752.5" fill="#00AE8F"/>
<path d="M691.912 470.606C751.741 395.535 810.426 358 867.967 358C957.899 358 1002.86 424.116 1002.86 556.347V980.473C1002.86 1052.88 1010.11 1108.51 1024.59 1147.38H927.986C915.03 1111.56 908.552 1046.02 908.552 950.749V543.776C908.552 504.526 902.455 475.565 890.26 456.893C878.066 437.839 856.726 428.312 826.241 428.312C780.513 428.312 735.737 453.654 691.913 504.336V897.026H597.599V504.336C597.599 468.898 593.982 444.51 586.748 431.172C579.889 417.835 568.076 411.166 551.308 411.166C524.252 411.166 507.676 437.841 501.578 491.191H481C488.245 402.401 524.828 358.006 590.749 358.006C620.091 358.006 644.099 368.295 662.771 388.874C681.444 409.071 691.162 436.317 691.924 470.614L691.912 470.606Z" fill="white"/>
</svg>
