<svg width="512" height="512" viewBox="0 0 512 512" fill="none" xmlns="http://www.w3.org/2000/svg">
<circle cx="256" cy="256" r="256" fill="#00A3FF"/>
<path d="M359.767 239.502C360.981 240.111 362.674 240.395 363.34 241.376C392.176 283.906 390.654 342.108 359.474 383.164C333.933 416.795 299.621 433.378 257.187 434.3C263.924 420.426 271.129 406.927 278.321 393.422C304.444 344.366 330.568 295.31 356.667 246.241C357.826 244.061 358.739 241.751 359.767 239.502Z" fill="#98DAFF"/>
<path d="M255.194 434.717C202.209 432.326 162.159 408.644 139.689 360.212C120.521 318.897 125.553 278.219 150.201 239.999C150.577 239.417 151.391 239.118 152.34 239.199C153.374 241.216 154.001 242.757 154.774 244.22C185.244 301.827 215.714 359.433 246.227 417.017C249.014 422.275 252.083 427.383 255.076 432.922C255.152 433.762 255.173 434.239 255.194 434.717Z" fill="#FEFFFF"/>
<path d="M255.445 434.771C255.173 434.239 255.152 433.762 255.337 432.597C255.692 431.098 255.972 430.286 255.971 429.474C255.952 385.507 255.909 341.54 255.868 297.573C266.737 291.549 277.662 285.625 288.461 279.479C311.25 266.51 333.97 253.422 356.73 240.404C357.434 240.002 358.274 239.838 359.409 239.533C358.739 241.751 357.826 244.061 356.667 246.241C330.568 295.31 304.444 344.366 278.321 393.422C271.129 406.927 263.924 420.426 256.715 434.306C256.368 434.731 256.031 434.778 255.445 434.771Z" fill="#34B5FF"/>
<path d="M255.564 297.413C255.909 341.54 255.952 385.507 255.971 429.474C255.972 430.286 255.692 431.098 255.282 432.236C252.083 427.383 249.014 422.275 246.228 417.017C215.714 359.433 185.244 301.827 154.774 244.22C154.001 242.757 153.374 241.217 152.654 239.36C161.759 244.053 170.948 248.996 180.009 254.161C205.121 268.476 230.18 282.883 255.564 297.413Z" fill="#99DAFF"/>
<path d="M345.817 214.496C344.813 215.686 344.04 217.277 342.771 218.007C315.263 233.838 287.702 249.577 260.137 265.31C259.139 265.88 258 266.202 256.539 266.194C256.155 232.131 256.16 198.514 256.5 164.865C258.485 165.571 260.21 166.179 261.772 167.071C281.376 178.26 300.928 189.542 320.557 200.688C328.9 205.426 337.393 209.902 345.817 214.496Z" fill="#34B5FF"/>
<path d="M256.165 164.898C256.16 198.514 256.155 232.131 256.188 266.227C251.253 264.038 246.222 261.47 241.315 258.683C217.714 245.281 194.126 231.854 170.614 218.296C169.129 217.44 168.329 215.398 167.645 213.792C168.341 213.576 168.604 213.475 168.868 213.374C168.868 213.374 168.831 213.535 169.113 213.48C170.872 212.67 172.381 211.972 173.82 211.152C201.128 195.587 228.429 180.007 255.84 164.547C255.949 164.663 256.165 164.898 256.165 164.898Z" fill="#99DAFF"/>
<path d="M345.67 214.198C337.393 209.902 328.9 205.426 320.557 200.688C300.928 189.542 281.376 178.26 261.772 167.071C260.21 166.179 258.485 165.571 256.5 164.865C256.165 164.898 255.949 164.663 255.901 164.092C255.889 136.956 255.94 110.391 255.917 83.8263C255.916 82.4276 255.287 81.0295 254.951 79.6311C256.373 76.4645 257.276 78.6531 258.154 79.9816C262.013 85.8164 265.849 91.6665 269.669 97.5266C294.957 136.316 320.239 175.109 345.67 214.198Z" fill="#98DAFF"/>
<path d="M254.775 79.9194C255.287 81.0294 255.916 82.4276 255.917 83.8262C255.94 110.391 255.889 136.956 255.792 163.976C228.429 180.007 201.128 195.587 173.82 211.152C172.381 211.972 170.872 212.669 169.033 213.461C169.158 212.213 169.431 210.79 170.164 209.666C198.282 166.496 226.443 123.354 254.775 79.9194Z" fill="#FDFEFF"/>
</svg>
