<svg width="71" height="71" viewBox="0 0 71 71" fill="none" xmlns="http://www.w3.org/2000/svg">
<circle cx="35.5" cy="35.5" r="35.5" fill="#444C5D"/>
<path d="M52.8666 50.8666H46.7333V27.8666C46.7333 27.0202 47.4202 26.3333 48.2666 26.3333H51.3333C52.1797 26.3333 52.8666 27.0202 52.8666 27.8666V50.8666Z" fill="#202A3E"/>
<path d="M43.6667 50.8667H37.5333V32.4667C37.5333 31.6203 38.2203 30.9333 39.0667 30.9333H42.1333C42.9797 30.9333 43.6667 31.6203 43.6667 32.4667V50.8667Z" fill="#202A3E"/>
<path d="M34.4667 50.8668H28.3334V37.0668C28.3334 36.2204 29.0203 35.5334 29.8667 35.5334H32.9334C33.7798 35.5334 34.4667 36.2204 34.4667 37.0668V50.8668Z" fill="#202A3E"/>
<path d="M25.2666 50.8666H19.1333V41.6666C19.1333 40.8202 19.8202 40.1333 20.6666 40.1333H23.7333C24.5797 40.1333 25.2666 40.8202 25.2666 41.6666V50.8666Z" fill="#202A3E"/>
<path d="M20.6666 29.4L42.118 18.2756" stroke="#202A3E" stroke-width="2" stroke-miterlimit="10" stroke-linecap="round" stroke-linejoin="round"/>
<path d="M36 15.6001L40.6 24.8001L45.2 16.356L36 15.6001Z" fill="#202A3E"/>
</svg>
