<svg width="71" height="71" viewBox="0 0 71 71" fill="none" xmlns="http://www.w3.org/2000/svg">
<circle cx="35.5" cy="35.5" r="35.5" fill="#444C5D"/>
<path d="M36.9623 28.6484H32.7454C32.4154 28.6484 32.0989 28.7795 31.8656 29.0128C31.6323 29.2461 31.5012 29.5626 31.5012 29.8925C31.5012 30.2225 31.6323 30.5389 31.8656 30.7723C32.0989 31.0056 32.4154 31.1367 32.7454 31.1367H34.6916V32.5005C34.6916 32.8304 34.8227 33.1469 35.056 33.3802C35.2893 33.6135 35.6058 33.7446 35.9357 33.7446C36.2657 33.7446 36.5821 33.6135 36.8155 33.3802C37.0488 33.1469 37.1799 32.8304 37.1799 32.5005V31.1147C38.0634 31.0617 38.8915 30.6662 39.488 30.0122C40.0845 29.3582 40.4023 28.4973 40.374 27.6126C40.3457 26.7279 39.9734 25.8891 39.3363 25.2746C38.6992 24.6602 37.8475 24.3184 36.9623 24.3221H35.0706C34.7854 24.3197 34.5127 24.2047 34.3119 24.0022C34.1111 23.7996 33.9984 23.526 33.9984 23.2407C33.9984 22.9555 34.1111 22.6818 34.3119 22.4793C34.5127 22.2768 34.7854 22.1618 35.0706 22.1594H39.3227C39.6527 22.1594 39.9691 22.0283 40.2024 21.795C40.4358 21.5617 40.5668 21.2452 40.5668 20.9153C40.5668 20.5853 40.4358 20.2688 40.2024 20.0355C39.9691 19.8022 39.6527 19.6711 39.3227 19.6711H37.1799V18.3076C37.1799 17.9777 37.0488 17.6612 36.8155 17.4279C36.5821 17.1946 36.2657 17.0635 35.9357 17.0635C35.6058 17.0635 35.2893 17.1946 35.056 17.4279C34.8227 17.6612 34.6916 17.9777 34.6916 18.3076V19.7093C33.7839 19.8046 32.9475 20.2448 32.355 20.939C31.7626 21.6332 31.4594 22.5285 31.508 23.4398C31.5567 24.3512 31.9535 25.2091 32.6164 25.8363C33.2794 26.4635 34.158 26.8121 35.0706 26.8102H36.9623C37.2061 26.8102 37.4399 26.907 37.6122 27.0794C37.7846 27.2517 37.8814 27.4855 37.8814 27.7293C37.8814 27.973 37.7846 28.2068 37.6122 28.3792C37.4399 28.5515 37.2061 28.6484 36.9623 28.6484Z" fill="#202A3E"/>
<path d="M52.3533 23.1166C52.1254 22.8779 51.8122 22.7395 51.4824 22.7315C51.1525 22.7236 50.833 22.8469 50.594 23.0744L49.3364 24.2729C49.1267 21.4726 48.0516 18.8069 46.26 16.6446C44.4683 14.4824 42.0487 12.9307 39.3362 12.2044C36.6237 11.4781 33.7525 11.6131 31.1201 12.5907C28.4877 13.5684 26.2243 15.3402 24.6434 17.661C24.4588 17.9335 24.3896 18.2681 24.4511 18.5914C24.5126 18.9148 24.6998 19.2006 24.9716 19.3863C25.2434 19.5719 25.5777 19.6423 25.9013 19.582C26.2249 19.5217 26.5114 19.3355 26.698 19.0644C27.9822 17.179 29.818 15.737 31.9539 14.936C34.0898 14.1351 36.4212 14.0143 38.6284 14.5904C40.8357 15.1665 42.8107 16.4112 44.2827 18.1538C45.7547 19.8965 46.6517 22.0518 46.8506 24.3243L45.6563 23.2677C45.5339 23.1594 45.3913 23.0763 45.2368 23.023C45.0823 22.9698 44.9188 22.9476 44.7557 22.9575C44.5926 22.9675 44.433 23.0095 44.2861 23.0811C44.1392 23.1527 44.0079 23.2526 43.8996 23.375C43.6808 23.6222 43.5693 23.9461 43.5894 24.2756C43.5994 24.4387 43.6414 24.5983 43.713 24.7451C43.7846 24.892 43.8845 25.0234 44.0069 25.1317L47.3183 28.0614C47.5519 28.2679 47.8543 28.3792 48.166 28.3733C48.4776 28.3675 48.7757 28.245 49.0013 28.03L52.3106 24.8757C52.5495 24.648 52.6882 24.3348 52.6962 24.0049C52.7042 23.6751 52.5809 23.3555 52.3533 23.1166Z" fill="#202A3E"/>
<path d="M47.3595 31.0589C47.0787 30.8856 46.7406 30.831 46.4195 30.907C46.0984 30.983 45.8206 31.1834 45.6473 31.4641C44.4284 33.4435 42.6167 34.9883 40.4697 35.8791C38.3226 36.77 35.9494 36.9615 33.6873 36.4264C31.4252 35.8914 29.3893 34.657 27.8688 32.8987C26.3483 31.1404 25.4207 28.9477 25.2176 26.6321L26.412 27.6886C26.5344 27.7969 26.6769 27.8801 26.8314 27.9333C26.986 27.9865 27.1495 28.0088 27.3126 27.9988C27.4757 27.9888 27.6353 27.9468 27.7822 27.8752C27.929 27.8036 28.0604 27.7037 28.1687 27.5813C28.277 27.4589 28.3601 27.3164 28.4133 27.1619C28.4666 27.0074 28.4888 26.8439 28.4789 26.6807C28.4689 26.5176 28.4269 26.3581 28.3553 26.2112C28.2836 26.0643 28.1838 25.9329 28.0614 25.8246L24.7492 22.8945C24.5057 22.6795 24.1878 22.568 23.8634 22.584C23.5389 22.6 23.2335 22.7421 23.0123 22.9801L20.0852 26.1345C19.8621 26.3766 19.7442 26.6973 19.7571 27.0263C19.77 27.3553 19.9127 27.6657 20.1541 27.8897C20.3954 28.1136 20.7157 28.2328 21.0447 28.2211C21.3737 28.2094 21.6847 28.0678 21.9095 27.8273L22.7441 26.9272C23.0087 29.7557 24.1559 32.4295 26.0234 34.5703C27.8909 36.711 30.3842 38.2105 33.1506 38.8567C35.917 39.5028 38.8166 39.2628 41.4391 38.1707C44.0617 37.0786 46.2745 35.1896 47.7647 32.7709C47.8505 32.6319 47.9081 32.4773 47.9342 32.3161C47.9602 32.1548 47.9543 31.99 47.9167 31.831C47.8791 31.672 47.8105 31.522 47.7149 31.3895C47.6193 31.2571 47.4985 31.1447 47.3595 31.0589Z" fill="#202A3E"/>
<path d="M23.8745 41.9409H19.3998C19.2109 41.9409 19.0298 42.0159 18.8963 42.1495C18.7628 42.283 18.6877 42.4641 18.6877 42.6529V57.9241C18.6877 58.113 18.7628 58.2941 18.8963 58.4276C19.0298 58.5611 19.2109 58.6361 19.3998 58.6361H23.8745C24.0783 58.6361 24.2801 58.596 24.4683 58.518C24.6566 58.44 24.8277 58.3257 24.9718 58.1816C25.1159 58.0375 25.2302 57.8664 25.3081 57.6782C25.3861 57.4899 25.4263 57.2881 25.4262 57.0843V43.4928C25.4262 43.0812 25.2628 42.6865 24.9717 42.3955C24.6807 42.1044 24.286 41.9409 23.8745 41.9409Z" fill="#202A3E"/>
<path d="M52.1544 43.6887C51.9103 43.3167 51.5774 43.0115 51.1857 42.8004C50.7941 42.5894 50.356 42.4793 49.9111 42.48H48.1578C47.3889 42.4785 46.637 42.7061 45.9979 43.1337C45.3589 43.5613 44.8617 44.1695 44.5697 44.8808C44.3372 45.4401 43.9754 45.9363 43.514 46.3287C43.0022 46.9943 42.3492 47.5382 41.602 47.9212C40.8548 48.3042 40.032 48.5168 39.1928 48.5436L33.9957 48.544C33.7216 48.544 33.4587 48.4351 33.2648 48.2412C33.071 48.0474 32.9621 47.7845 32.9621 47.5104C32.9621 47.2362 33.071 46.9734 33.2648 46.7795C33.4587 46.5857 33.7216 46.4768 33.9957 46.4768H39.1651C39.9335 46.4551 40.6724 46.1757 41.2629 45.6836C41.1627 44.7998 40.7398 43.984 40.0751 43.3928C39.4105 42.8017 38.5511 42.4766 37.6616 42.4801H33.8504C33.143 42.4783 32.4424 42.6164 31.7886 42.8864C31.1348 43.1564 30.5409 43.5531 30.0411 44.0535L29.9438 44.1504C29.2734 44.8211 28.4215 45.2812 27.4929 45.4741V55.8407H41.2512C43.3284 55.842 45.3604 55.2336 47.0951 54.0909C48.8298 52.9482 50.191 51.3215 51.0099 49.4125L52.3789 46.2263C52.5552 45.8179 52.6269 45.3721 52.5878 44.9291C52.5486 44.486 52.3996 44.0597 52.1544 43.6887Z" fill="#202A3E"/>
</svg>
