<svg width="71" height="71" viewBox="0 0 71 71" fill="none" xmlns="http://www.w3.org/2000/svg">
<circle cx="35.5" cy="35.5" r="35.5" fill="#444C5D"/>
<path d="M44.2469 41.7666C44.0944 41.7262 40.4808 40.8211 37.707 42.9883C36.6993 43.7986 35.9355 44.8719 35.5 46.0895C35.0643 44.8721 34.3003 43.7989 33.2926 42.9887C30.518 40.822 26.9059 41.7273 26.7527 41.767C26.6207 41.8013 26.5004 41.8702 26.404 41.9666C26.3077 42.063 26.2388 42.1835 26.2046 42.3154C26.165 42.4675 25.2588 46.0796 27.4263 48.855C28.8029 50.6167 31.0683 51.5968 34.1599 51.7873V57.0625C34.1599 57.4178 34.3011 57.7586 34.5524 58.0099C34.8036 58.2612 35.1444 58.4023 35.4998 58.4023C35.8551 58.4023 36.1959 58.2612 36.4472 58.0099C36.6985 57.7586 36.8396 57.4178 36.8396 57.0625V51.7873C39.9317 51.5964 42.1972 50.6159 43.5733 48.8546C45.7408 46.0792 44.8346 42.4671 44.795 42.3146C44.7607 42.1828 44.6918 42.0625 44.5954 41.9661C44.4991 41.8698 44.3787 41.8009 44.2469 41.7666Z" fill="#202A3E"/>
<path d="M35.8395 12.0918C33.2288 12.0918 30.6766 12.8659 28.5059 14.3164C26.3351 15.7668 24.6432 17.8284 23.6441 20.2404C22.645 22.6524 22.3836 25.3065 22.8929 27.8671C23.4022 30.4277 24.6594 32.7797 26.5055 34.6258C28.3516 36.4719 30.7036 37.7291 33.2642 38.2384C35.8248 38.7478 38.4789 38.4864 40.8909 37.4873C43.3029 36.4882 45.3645 34.7963 46.8149 32.6256C48.2654 30.4548 49.0396 27.9027 49.0396 25.2919C49.0396 21.7911 47.6489 18.4336 45.1734 15.9581C42.6979 13.4826 39.3404 12.0918 35.8395 12.0918ZM34.8761 24.4203H36.7677C37.6101 24.4277 38.4155 24.7673 39.0088 25.3653C39.6022 25.9634 39.9354 26.7714 39.9362 27.6138C39.937 28.4562 39.6052 29.2649 39.013 29.864C38.4208 30.4631 37.6161 30.8042 36.7737 30.8132V32.3881C36.7771 32.5259 36.7528 32.663 36.7024 32.7913C36.652 32.9196 36.5764 33.0365 36.4801 33.1351C36.3839 33.2338 36.2688 33.3122 36.1418 33.3657C36.0147 33.4192 35.8783 33.4468 35.7404 33.4468C35.6026 33.4468 35.4661 33.4192 35.3391 33.3657C35.2121 33.3122 35.097 33.2338 35.0007 33.1351C34.9044 33.0365 34.8289 32.9196 34.7785 32.7913C34.728 32.663 34.7038 32.5259 34.7071 32.3881V30.8143H32.5508C32.2767 30.8143 32.0138 30.7054 31.82 30.5116C31.6261 30.3177 31.5172 30.0548 31.5172 29.7807C31.5172 29.5066 31.6261 29.2437 31.82 29.0499C32.0138 28.856 32.2767 28.7471 32.5508 28.7471H36.7677C36.9169 28.7484 37.0648 28.72 37.2029 28.6638C37.341 28.6076 37.4666 28.5246 37.5725 28.4196C37.6784 28.3146 37.7624 28.1896 37.8198 28.052C37.8771 27.9143 37.9067 27.7667 37.9067 27.6176C37.9067 27.4684 37.8771 27.3208 37.8198 27.1831C37.7624 27.0455 37.6784 26.9205 37.5725 26.8155C37.4666 26.7105 37.341 26.6275 37.2029 26.5713C37.0648 26.5151 36.9169 26.4868 36.7677 26.488H34.8761C34.0003 26.4899 33.1586 26.1491 32.5309 25.5383C31.9032 24.9276 31.5394 24.0955 31.5173 23.22C31.4952 22.3445 31.8166 21.4951 32.4127 20.8535C33.0089 20.2119 33.8324 19.8291 34.7071 19.7869V18.1955C34.7038 18.0577 34.728 17.9206 34.7785 17.7923C34.8289 17.664 34.9044 17.5471 35.0007 17.4484C35.097 17.3498 35.2121 17.2714 35.3391 17.2179C35.4661 17.1643 35.6026 17.1368 35.7404 17.1368C35.8783 17.1368 36.0147 17.1643 36.1418 17.2179C36.2688 17.2714 36.3839 17.3498 36.4801 17.4484C36.5764 17.5471 36.652 17.664 36.7024 17.7923C36.7528 17.9206 36.7771 18.0577 36.7737 18.1955V19.7693H39.1282C39.4023 19.7693 39.6652 19.8782 39.859 20.0721C40.0529 20.2659 40.1618 20.5288 40.1618 20.8029C40.1618 21.0771 40.0529 21.3399 39.859 21.5338C39.6652 21.7276 39.4023 21.8365 39.1282 21.8365H34.8761C34.7056 21.8352 34.5366 21.8677 34.3787 21.932C34.2208 21.9963 34.0772 22.0913 33.9562 22.2113C33.8352 22.3314 33.7392 22.4743 33.6736 22.6317C33.6081 22.789 33.5743 22.9578 33.5743 23.1283C33.5743 23.2988 33.6081 23.4676 33.6736 23.625C33.7392 23.7824 33.8352 23.9252 33.9562 24.0453C34.0772 24.1654 34.2208 24.2603 34.3787 24.3247C34.5366 24.389 34.7056 24.4216 34.8761 24.4203Z" fill="#202A3E"/>
</svg>
