<svg width="72" height="71" viewBox="0 0 72 71" fill="none" xmlns="http://www.w3.org/2000/svg">
<ellipse cx="35.6639" cy="35.5" rx="35.6175" ry="35.5" fill="#444C5D"/>
<path d="M39.4263 38.3125C40.9847 38.3125 42.2481 37.0532 42.2481 35.5C42.2481 33.9467 40.9847 32.6875 39.4263 32.6875C37.8679 32.6875 36.6045 33.9467 36.6045 35.5C36.6045 37.0532 37.8679 38.3125 39.4263 38.3125Z" fill="#202A3E"/>
<path d="M16.8518 27.5312C16.8518 23.648 20.0102 20.5 23.9063 20.5H47.4214C51.3176 20.5 54.476 23.648 54.476 27.5312V43.4688C54.476 47.3521 51.3176 50.5 47.4214 50.5H23.9063C20.0102 50.5 16.8518 47.3521 16.8518 43.4688V27.5312ZM23.9063 26.125C23.1271 26.125 22.4954 26.7546 22.4954 27.5312V43.4688C22.4954 44.2454 23.1271 44.875 23.9063 44.875C24.6856 44.875 25.3172 44.2454 25.3172 43.4688V27.5312C25.3172 26.7546 24.6856 26.125 23.9063 26.125ZM34.31 28.4119C33.759 27.8627 32.8658 27.8627 32.3148 28.4119C31.7637 28.9611 31.7637 29.8514 32.3148 30.4006L34.5641 32.6425C34.0675 33.4801 33.7827 34.4567 33.7827 35.5C33.7827 36.5432 34.0675 37.5199 34.5641 38.3575L32.3148 40.5994C31.7637 41.1486 31.7637 42.0389 32.3148 42.5881C32.8658 43.1373 33.759 43.1373 34.31 42.5881L36.5593 40.3461C37.3997 40.8411 38.3796 41.125 39.4263 41.125C40.473 41.125 41.4529 40.8411 42.2933 40.3461L44.5426 42.5881C45.0936 43.1373 45.9868 43.1373 46.5378 42.5881C47.0889 42.0389 47.0889 41.1486 46.5378 40.5994L44.2885 38.3575C44.7851 37.5199 45.0699 36.5432 45.0699 35.5C45.0699 34.4567 44.7851 33.4801 44.2885 32.6425L46.5378 30.4006C47.0889 29.8514 47.0889 28.9611 46.5378 28.4119C45.9868 27.8627 45.0936 27.8627 44.5426 28.4119L42.2933 30.6538C41.4529 30.159 40.473 29.875 39.4263 29.875C38.3796 29.875 37.3997 30.159 36.5593 30.6538L34.31 28.4119Z" fill="#202A3E"/>
</svg>
