<svg width="77" height="16" viewBox="0 0 77 16" fill="none" xmlns="http://www.w3.org/2000/svg">
<g clip-path="url(#clip0_2576_46941)">
<g clip-path="url(#clip1_2576_46941)">
<path d="M5.7142 15.9998C4.55356 15.9998 3.56318 15.7295 2.74306 15.189C1.91898 14.6437 1.26675 13.8755 0.862304 12.9738C0.414136 11.9747 0.188134 10.8901 0.1999 9.79514C0.206352 8.59077 0.433964 7.52261 0.882736 6.59065C1.3012 5.6925 1.96418 4.93038 2.79575 4.3916C3.62232 3.85823 4.60554 3.59155 5.74539 3.59155C7.02432 3.59155 8.10682 3.92706 8.99289 4.59806C9.87896 5.26907 10.4575 6.18525 10.7285 7.34661L8.22725 8.05418C8.06657 7.47373 7.72813 6.95817 7.25946 6.5799C6.82096 6.23196 6.27608 6.04552 5.71635 6.05191C5.06327 6.05191 4.5256 6.21321 4.10335 6.53581C3.66578 6.87798 3.33917 7.3419 3.16459 7.86922C2.95465 8.48924 2.85245 9.14063 2.86242 9.79514C2.86242 10.9135 3.10222 11.8171 3.58182 12.5061C4.06142 13.195 4.77365 13.5394 5.7185 13.5394C6.38593 13.5394 6.91248 13.3799 7.29817 13.0609C7.68385 12.7419 7.97419 12.2813 8.16919 11.6791L10.7328 12.277C10.3858 13.4749 9.77645 14.3947 8.90471 15.0363C8.03298 15.6779 6.96947 15.9991 5.7142 15.9998Z" fill="white"/>
<path d="M12.8245 15.673V3.91858H15.0396V6.78112L14.7687 6.4112C14.9023 6.02793 15.0903 5.6658 15.3268 5.33587C15.5538 5.01863 15.8387 4.74717 16.1666 4.53582C16.4493 4.33717 16.7599 4.18136 17.0882 4.07343C17.4256 3.96246 17.7757 3.89454 18.1302 3.87127C18.475 3.84587 18.8216 3.86248 19.1625 3.92073V6.36711C18.7882 6.262 18.3974 6.2288 18.0108 6.26926C17.6139 6.30896 17.2295 6.42999 16.8815 6.6248C16.5335 6.81962 16.2294 7.08404 15.9881 7.40158C15.7645 7.71538 15.6001 8.06743 15.5031 8.44035C15.3962 8.85108 15.3438 9.27409 15.3472 9.69849V15.673H12.8245Z" fill="white"/>
<path d="M26.053 15.9998C24.9132 15.9998 23.9124 15.7421 23.0507 15.2266C22.1912 14.7143 21.4924 13.9715 21.0334 13.0824C20.5502 12.1684 20.3086 11.1164 20.3086 9.92633C20.3086 8.64239 20.5448 7.52691 21.0172 6.5799C21.453 5.67407 22.1359 4.90988 22.9872 4.37547C23.8282 3.85286 24.8013 3.59155 25.9068 3.59155C27.0746 3.59155 28.0668 3.87831 28.8833 4.45182C29.6998 5.02533 30.306 5.82896 30.7017 6.86271C31.0981 7.90077 31.2476 9.12342 31.1501 10.5307H28.6585V9.5704C28.6521 8.2929 28.437 7.36095 28.0133 6.77454C27.5897 6.18812 26.9212 5.89276 26.0079 5.88846C24.9791 5.88846 24.2146 6.22038 23.7142 6.88422C23.2138 7.54806 22.9629 8.51836 22.9614 9.79514C22.9614 10.9852 23.2123 11.9067 23.7142 12.5598C24.216 13.2129 24.9458 13.5394 25.9035 13.5394C26.4674 13.5545 27.0234 13.4051 27.5036 13.1093C27.9657 12.8067 28.327 12.3731 28.5413 11.8641L31.0221 12.6469C30.6304 13.6592 29.9323 14.5239 29.0252 15.1202C28.1434 15.7012 27.109 16.0073 26.053 15.9998ZM22.1743 10.5253V8.54453H29.9167V10.5253H22.1743Z" fill="white"/>
<path d="M37.9989 15.9999C36.9637 15.9999 36.0601 15.7278 35.288 15.1837C34.5008 14.6191 33.8813 13.8517 33.4954 12.9631C33.059 11.9649 32.8422 10.8845 32.8599 9.7952C32.8599 8.60588 33.075 7.54489 33.5051 6.61222C33.8968 5.72264 34.526 4.9581 35.3235 4.40241C36.112 3.86259 37.0365 3.59233 38.0968 3.59161C39.157 3.59089 40.0553 3.86116 40.7915 4.40241C41.5389 4.97156 42.1116 5.73906 42.4443 6.61759C42.8304 7.63163 43.0184 8.71033 42.9981 9.7952C43.0143 10.8756 42.8234 11.9491 42.4357 12.9578C42.0998 13.8446 41.5174 14.6169 40.7571 15.1837C40.0159 15.7278 39.0965 15.9999 37.9989 15.9999ZM38.3849 13.6481C39.0581 13.6481 39.6019 13.4868 40.0162 13.1642C40.4479 12.8141 40.7639 12.3419 40.9227 11.8093C41.1247 11.1574 41.2216 10.4775 41.2098 9.7952C41.2223 9.1114 41.1254 8.42999 40.9227 7.7768C40.7646 7.24914 40.4546 6.77976 40.0313 6.42726C39.6284 6.10466 39.1072 5.94336 38.4677 5.94336C37.7939 5.94336 37.2379 6.11541 36.7999 6.45952C36.3497 6.82284 36.0137 7.30817 35.8321 7.85745C35.6168 8.48197 35.5109 9.13897 35.5192 9.7995C35.5103 10.4635 35.6143 11.1242 35.8267 11.7534C36.0032 12.2962 36.3302 12.7776 36.7698 13.1416C37.1942 13.48 37.7326 13.6488 38.3849 13.6481ZM41.2098 15.673V7.41979H40.8969V0H43.4282V15.673H41.2098Z" fill="white"/>
<path d="M59.2356 15.673V3.91858H61.4562V6.78112L61.1852 6.4112C61.3184 6.02774 61.5064 5.66555 61.7433 5.33587C61.9699 5.01866 62.2545 4.7472 62.582 4.53582C62.865 4.33695 63.176 4.18113 63.5047 4.07343C63.8397 3.96301 64.1872 3.89509 64.5391 3.87127C64.884 3.84587 65.2306 3.86248 65.5714 3.92073V6.36711C65.1972 6.26195 64.8064 6.22875 64.4198 6.26926C64.0229 6.30896 63.6385 6.42999 63.2905 6.6248C62.9425 6.81962 62.6384 7.08404 62.3971 7.40158C62.1739 7.71562 62.0095 8.06759 61.9121 8.44035C61.8057 8.85117 61.7532 9.27412 61.7562 9.69849V15.673H59.2356Z" fill="white"/>
<path d="M70.4396 15.9998C69.6267 15.9998 68.9388 15.8385 68.3761 15.5159C67.8359 15.2164 67.3926 14.7687 67.0986 14.2255C66.8088 13.6795 66.6609 13.0693 66.6684 12.4512C66.6606 11.9289 66.7526 11.4099 66.9394 10.9221C67.1196 10.4695 67.4053 10.0665 67.7728 9.74675C68.2043 9.3854 68.7011 9.11016 69.2363 8.93595C69.757 8.7652 70.2878 8.62693 70.8257 8.52195C71.4329 8.39936 72.0931 8.28502 72.8064 8.17892C73.5197 8.07282 74.2649 7.95883 75.042 7.83696L74.1463 8.37463C74.1527 7.56168 73.9789 6.96308 73.6248 6.57882C73.2706 6.19457 72.6727 6.00209 71.8311 6.00137C71.3186 6.00296 70.8143 6.12996 70.3622 6.37129C69.889 6.61861 69.5589 7.04301 69.3718 7.64448L67.0781 6.89175C67.3264 5.93955 67.8835 5.09657 68.6621 4.49483C69.4435 3.89265 70.498 3.59155 71.8257 3.59155C72.8294 3.59155 73.7104 3.76217 74.4689 4.10341C75.2207 4.43445 75.8238 5.03144 76.1625 5.77985C76.36 6.17692 76.4838 6.60646 76.5281 7.04767C76.569 7.4778 76.5898 7.94772 76.5905 8.45743V15.6729H74.3904V13.1265L74.756 13.5394C74.2484 14.389 73.6559 15.0112 72.9785 15.4062C72.301 15.8012 71.4547 15.9991 70.4396 15.9998ZM70.9407 13.9104C71.4456 13.9248 71.9463 13.8163 72.3999 13.5943C72.774 13.4085 73.104 13.1449 73.3677 12.8211C73.5805 12.5663 73.7448 12.2748 73.8527 11.9609C73.9904 11.5935 74.0656 11.2057 74.0753 10.8135C74.0925 10.3833 74.1011 10.0331 74.1011 9.76288L74.87 10.0005C74.113 10.1246 73.4631 10.2321 72.9204 10.3231C72.3777 10.4142 71.9117 10.5031 71.5225 10.5898C71.1737 10.6627 70.8294 10.7553 70.4912 10.8672C70.2286 10.9614 69.9795 11.0898 69.7503 11.249C69.5617 11.3804 69.4036 11.551 69.2869 11.749C69.1758 11.9526 69.1201 12.1817 69.1256 12.4136C69.1198 12.6839 69.1922 12.9502 69.3342 13.1803C69.4829 13.4108 69.6945 13.594 69.9439 13.7083C70.2564 13.851 70.5974 13.9201 70.9407 13.9104Z" fill="white"/>
<path d="M48.1459 13.0051C48.2868 13.1564 48.3651 13.3554 48.3651 13.5621C48.3651 13.7689 48.2868 13.9679 48.1459 14.1192C48.0783 14.1919 47.9964 14.2498 47.9054 14.2895C47.8144 14.3291 47.7161 14.3496 47.6169 14.3496C47.5176 14.3496 47.4193 14.3291 47.3283 14.2895C47.2373 14.2498 47.1554 14.1919 47.0878 14.1192C46.9468 13.9677 46.8684 13.7685 46.8684 13.5616C46.8684 13.3547 46.9468 13.1555 47.0878 13.004C47.1555 12.9314 47.2374 12.8735 47.3285 12.834C47.4196 12.7944 47.5178 12.7741 47.6171 12.7742C47.7164 12.7743 47.8146 12.7948 47.9056 12.8346C47.9965 12.8743 48.0784 12.9324 48.1459 13.0051ZM47.2082 11.5244C47.1744 11.4303 47.1218 11.344 47.0536 11.2709C46.9853 11.1977 46.9029 11.1393 46.8114 11.099C46.7198 11.0588 46.621 11.0376 46.521 11.0368C46.421 11.036 46.3219 11.0555 46.2297 11.0943C46.0429 11.181 45.8967 11.3362 45.8213 11.5278C45.7458 11.7193 45.7469 11.9326 45.8243 12.1234C45.8775 12.2645 45.9718 12.3864 46.0951 12.4732C46.2184 12.5601 46.3649 12.6079 46.5157 12.6105C46.6142 12.6104 46.7116 12.5899 46.8017 12.5503C46.9875 12.4633 47.1331 12.3087 47.2086 12.118C47.2842 11.9273 47.284 11.715 47.2082 11.5244ZM47.1007 5.44124C46.9598 5.5925 46.8815 5.79154 46.8815 5.99826C46.8815 6.20498 46.9598 6.40402 47.1007 6.55528C47.1684 6.628 47.2504 6.68599 47.3415 6.72565C47.4326 6.7653 47.5309 6.78576 47.6303 6.78576C47.7297 6.78576 47.828 6.7653 47.9191 6.72565C48.0102 6.68599 48.0922 6.628 48.1599 6.55528C48.3008 6.40402 48.3791 6.20498 48.3791 5.99826C48.3791 5.79154 48.3008 5.5925 48.1599 5.44124C48.0923 5.36737 48.0101 5.30838 47.9184 5.26802C47.8268 5.22766 47.7277 5.20682 47.6276 5.20682C47.5275 5.20682 47.4284 5.22766 47.3368 5.26802C47.2452 5.30838 47.1629 5.36737 47.0953 5.44124H47.1007ZM46.2404 8.45969C46.331 8.49933 46.4287 8.51984 46.5275 8.51991C46.6781 8.51749 46.8244 8.46999 46.9477 8.38353C47.0709 8.29708 47.1654 8.17565 47.219 8.03494C47.2965 7.84413 47.2978 7.63083 47.2225 7.43912C47.1473 7.2474 47.0013 7.09191 46.8147 7.00477C46.7225 6.96587 46.6233 6.94619 46.5233 6.94694C46.4232 6.94768 46.3243 6.96883 46.2327 7.0091C46.1411 7.04936 46.0587 7.10789 45.9905 7.18111C45.9223 7.25432 45.8698 7.34068 45.8361 7.4349C45.7599 7.62419 45.7585 7.83535 45.8322 8.02563C45.9059 8.2159 46.0491 8.37106 46.2329 8.45969H46.2404ZM54.8162 6.79078C54.9142 6.7894 55.011 6.76821 55.1006 6.72848C55.1902 6.68875 55.2709 6.6313 55.3377 6.55958C55.4787 6.40814 55.5571 6.20892 55.5571 6.00202C55.5571 5.79512 55.4787 5.59591 55.3377 5.44446C55.2701 5.37177 55.1882 5.3138 55.0972 5.27416C55.0062 5.23451 54.908 5.21406 54.8087 5.21406C54.7094 5.21406 54.6112 5.23451 54.5201 5.27416C54.4291 5.3138 54.3472 5.37177 54.2796 5.44446C54.1387 5.59573 54.0604 5.79477 54.0604 6.00149C54.0604 6.2082 54.1387 6.40724 54.2796 6.55851C54.3473 6.63128 54.4291 6.68943 54.5201 6.72938C54.6111 6.76933 54.7093 6.79022 54.8087 6.79078H54.8162ZM46.1329 10.5663C46.2904 10.5736 46.4464 10.5336 46.5809 10.4514C46.7154 10.3692 46.8223 10.2486 46.8876 10.1052C46.953 9.96179 46.974 9.80207 46.9478 9.64663C46.9216 9.4912 46.8494 9.34717 46.7406 9.23309C46.6319 9.11902 46.4914 9.04014 46.3374 9.0066C46.1834 8.97306 46.0228 8.98641 45.8765 9.04492C45.7301 9.10344 45.6046 9.20444 45.5161 9.33491C45.4277 9.46538 45.3803 9.61935 45.3802 9.77698C45.3774 9.87831 45.3948 9.97917 45.4312 10.0738C45.4676 10.1684 45.5224 10.2548 45.5923 10.3282C45.6623 10.4016 45.7461 10.4604 45.8388 10.5012C45.9316 10.5421 46.0315 10.5642 46.1329 10.5663ZM55.2194 8.03924C55.2728 8.18016 55.3672 8.30181 55.4905 8.38847C55.6138 8.47512 55.7602 8.52279 55.9109 8.52529C56.0097 8.52512 56.1074 8.50462 56.198 8.46507C56.3845 8.37814 56.5305 8.22285 56.6058 8.03131C56.681 7.83977 56.6798 7.62663 56.6023 7.43598C56.5688 7.34179 56.5163 7.25545 56.4482 7.18225C56.3801 7.10904 56.2978 7.05051 56.2063 7.01024C56.1148 6.96997 56.016 6.94881 55.916 6.94805C55.816 6.9473 55.717 6.96696 55.6248 7.00585C55.4371 7.09261 55.2901 7.24854 55.2145 7.4411C55.139 7.63365 55.1408 7.84795 55.2194 8.03924ZM49.5503 13.9966C49.4581 13.9577 49.359 13.938 49.2589 13.9387C49.1588 13.9395 49.06 13.9606 48.9684 14.0009C48.8768 14.0412 48.7944 14.0997 48.7262 14.1729C48.658 14.2461 48.6054 14.3325 48.5717 14.4267C48.4939 14.6174 48.4923 14.8307 48.5674 15.0224C48.6425 15.2142 48.7884 15.3698 48.975 15.4569C49.0655 15.4969 49.1632 15.5177 49.2621 15.5182C49.4128 15.5157 49.5592 15.468 49.6825 15.3814C49.8058 15.2947 49.9002 15.173 49.9535 15.0321C50.0328 14.8408 50.035 14.6263 49.9599 14.4334C49.8848 14.2404 49.738 14.0839 49.5503 13.9966ZM48.9868 4.11213C48.8001 4.19888 48.6538 4.35402 48.5782 4.54553C48.5025 4.73704 48.5033 4.95028 48.5803 5.14122C48.6336 5.2825 48.7281 5.40451 48.8516 5.49138C48.9751 5.57825 49.1219 5.62597 49.2729 5.62834C49.3713 5.62776 49.4686 5.60727 49.5589 5.56813C49.7455 5.48097 49.8916 5.32555 49.967 5.13388C50.0424 4.94222 50.0415 4.72892 49.9643 4.53796C49.9303 4.44416 49.8776 4.35826 49.8093 4.28552C49.741 4.21278 49.6586 4.15471 49.5671 4.11486C49.4757 4.07502 49.377 4.05422 49.2773 4.05375C49.1775 4.05328 49.0787 4.07314 48.9868 4.11213ZM51.2074 14.345C51.0055 14.3555 50.8153 14.4432 50.6761 14.5898C50.5369 14.7365 50.4593 14.931 50.4593 15.1332C50.4593 15.3354 50.5369 15.5299 50.6761 15.6766C50.8153 15.8232 51.0055 15.9109 51.2074 15.9214C51.4093 15.9109 51.5995 15.8232 51.7387 15.6766C51.8779 15.5299 51.9555 15.3354 51.9555 15.1332C51.9555 14.931 51.8779 14.7365 51.7387 14.5898C51.5995 14.4432 51.4093 14.3555 51.2074 14.345ZM56.1948 11.119C56.1029 11.0799 56.0041 11.0599 55.9043 11.0602C55.8044 11.0605 55.7057 11.0811 55.6141 11.1208C55.5225 11.1604 55.4399 11.2182 55.3713 11.2907C55.3027 11.3633 55.2496 11.449 55.2151 11.5427C55.1378 11.7335 55.1365 11.9468 55.2115 12.1386C55.2865 12.3304 55.4321 12.4862 55.6184 12.5739C55.7093 12.6136 55.8074 12.6341 55.9066 12.6341C56.0571 12.6317 56.2035 12.5842 56.3267 12.4978C56.45 12.4113 56.5445 12.2899 56.598 12.1492C56.6766 11.9579 56.6786 11.7438 56.6035 11.5512C56.5284 11.3586 56.382 11.2023 56.1948 11.1147V11.119ZM56.2958 9.00059C56.1946 9.00268 56.0948 9.02475 56.0021 9.06554C55.9094 9.10633 55.8256 9.16504 55.7557 9.23828C55.6858 9.31152 55.631 9.39786 55.5945 9.49233C55.558 9.58681 55.5405 9.68756 55.5431 9.7888V9.79848C55.5376 10.0023 55.6132 10.2001 55.7533 10.3482C55.8935 10.4964 56.0866 10.5829 56.2905 10.5889C56.3916 10.5866 56.4913 10.5645 56.5838 10.5237C56.6764 10.4829 56.76 10.4243 56.8299 10.3512C56.8998 10.2781 56.9546 10.192 56.9912 10.0977C57.0278 10.0034 57.0455 9.90282 57.0432 9.80171V9.78558C57.0484 9.5819 56.9727 9.38447 56.8326 9.23653C56.6925 9.08858 56.4995 9.00219 56.2958 8.99628V9.00059ZM54.2732 13.0116C54.132 13.1627 54.0535 13.3618 54.0535 13.5686C54.0535 13.7754 54.132 13.9745 54.2732 14.1256C54.3406 14.1986 54.4224 14.2568 54.5135 14.2967C54.6045 14.3365 54.7028 14.357 54.8022 14.357C54.9016 14.357 54.9999 14.3365 55.0909 14.2967C55.182 14.2568 55.2638 14.1986 55.3313 14.1256C55.4719 13.9742 55.5501 13.7752 55.5501 13.5686C55.5501 13.362 55.4719 13.163 55.3313 13.0116C55.2637 12.9387 55.1819 12.8806 55.0908 12.8409C54.9998 12.8012 54.9015 12.7807 54.8022 12.7807C54.7029 12.7807 54.6046 12.8012 54.5136 12.8409C54.4226 12.8806 54.3407 12.9387 54.2732 13.0116ZM51.2181 3.64758C51.0143 3.65512 50.8213 3.7414 50.6797 3.8883C50.5381 4.03519 50.459 4.23126 50.459 4.43526C50.459 4.63927 50.5381 4.83534 50.6797 4.98223C50.8213 5.12913 51.0143 5.21541 51.2181 5.22294C51.422 5.21541 51.615 5.12913 51.7566 4.98223C51.8981 4.83534 51.9772 4.63927 51.9772 4.43526C51.9772 4.23126 51.8981 4.03519 51.7566 3.8883C51.615 3.7414 51.422 3.65512 51.2181 3.64758ZM52.8655 14.003C52.6788 14.0898 52.5325 14.2449 52.4569 14.4364C52.3812 14.6279 52.382 14.8412 52.4591 15.0321C52.5123 15.1734 52.6068 15.2954 52.7303 15.3823C52.8538 15.4692 53.0006 15.5169 53.1516 15.5192C53.2497 15.5191 53.3467 15.4986 53.4365 15.459C53.6232 15.3725 53.7695 15.2175 53.8451 15.0262C53.9208 14.8349 53.92 14.6218 53.843 14.431C53.8092 14.337 53.7567 14.2509 53.6885 14.1779C53.6203 14.105 53.5379 14.0467 53.4464 14.0066C53.3549 13.9665 53.2562 13.9456 53.1563 13.9449C53.0565 13.9443 52.9575 13.9641 52.8655 14.003ZM53.4484 4.10998C53.3562 4.07124 53.257 4.05168 53.157 4.0525C53.057 4.05333 52.9582 4.0745 52.8667 4.11475C52.7751 4.155 52.6927 4.21347 52.6245 4.28659C52.5562 4.35972 52.5036 4.44598 52.4698 4.54011C52.3924 4.73076 52.3911 4.9439 52.4664 5.13544C52.5416 5.32698 52.6876 5.48227 52.8741 5.5692C52.9645 5.60957 53.0623 5.63046 53.1613 5.6305C53.3119 5.62799 53.4584 5.58033 53.5816 5.49367C53.7049 5.40702 53.7993 5.28536 53.8527 5.14445C53.9302 4.95364 53.9315 4.74034 53.8562 4.54863C53.781 4.35691 53.635 4.20142 53.4484 4.11428V4.10998Z" fill="white"/>
</g>
</g>
<defs>
<clipPath id="clip0_2576_46941">
<rect width="76.8" height="16" fill="white"/>
</clipPath>
<clipPath id="clip1_2576_46941">
<rect width="76.8" height="16" fill="white"/>
</clipPath>
</defs>
</svg>
