<svg width="2435" height="934" viewBox="0 0 2435 934" fill="none" xmlns="http://www.w3.org/2000/svg">
<g clip-path="url(#clip0_19_8)">
<path d="M371.117 674.91C379.205 696.457 386.241 718.754 385.929 741.767C384.884 818.97 337.242 891.231 260.589 919.925C160.8 957.273 49.6329 906.642 12.2897 806.834C-25.0537 707.026 25.5684 595.833 125.357 558.484C127.153 557.812 128.952 557.168 130.755 556.553L184.09 695.771C181.861 696.226 179.639 696.864 177.441 697.686C154.517 706.27 142.888 731.813 151.466 754.743C160.045 777.667 185.582 789.301 208.506 780.718C231.43 772.14 243.059 746.597 234.48 723.667C234.254 723.064 234.015 722.467 233.765 721.876L145.133 490.424L144.613 490.684L137.069 469.922C70.3751 290.436 161.503 90.7304 340.896 23.5835C520.54 -43.6568 720.665 47.4932 787.894 227.172L791.375 236.475C856.233 409.82 773.349 603.535 603.194 676.287C547.29 700.187 486.972 711.702 426.374 710.153L367.408 556.898L415.019 560.762C459.349 564.36 503.888 557.102 544.784 539.616C641.906 498.089 689.217 387.515 652.196 288.569L648.715 279.267C610.257 176.468 495.758 124.318 392.979 162.789C290.201 201.258 238.063 315.779 276.525 418.578L294.491 468.02L294.374 467.952L297.566 476.485L325.553 553.501L371.117 674.91Z" fill="white"/>
<path d="M1361.89 656.117C1336.23 656.117 1314.08 649.786 1295.44 637.13C1276.81 624.468 1262.4 607.591 1252.2 586.49C1242.36 565.039 1237.44 541.478 1237.44 515.808C1237.44 489.083 1243.06 465.17 1254.31 444.071C1265.91 422.62 1282.26 405.741 1303.36 393.433C1324.81 380.773 1350.29 374.444 1379.82 374.444C1409.01 374.444 1433.8 380.773 1454.19 393.433C1474.93 405.741 1490.75 422.62 1501.65 444.071C1512.9 465.17 1518.52 488.731 1518.52 514.753V649.786H1457.87V599.675H1456.82C1451.55 609.524 1444.69 618.84 1436.25 627.63C1427.81 636.072 1417.44 642.929 1405.14 648.202C1392.83 653.481 1378.42 656.117 1361.89 656.117ZM1378.25 604.422C1394.07 604.422 1407.78 600.556 1419.38 592.818C1431.33 584.731 1440.47 574.006 1446.8 560.644C1453.48 546.929 1456.82 531.632 1456.82 514.753C1456.82 497.873 1453.66 482.928 1447.33 469.917C1441 456.555 1432.03 446.005 1420.43 438.269C1408.83 430.181 1394.94 426.137 1378.77 426.137C1361.89 426.137 1347.48 430.181 1335.53 438.269C1323.57 446.005 1314.43 456.555 1308.1 469.917C1301.77 483.28 1298.61 498.401 1298.61 515.28C1298.61 531.808 1301.77 546.929 1308.1 560.644C1314.43 574.006 1323.4 584.731 1335 592.818C1346.95 600.556 1361.37 604.422 1378.25 604.422Z" fill="white"/>
<path d="M1562.59 649.786V457.255C1562.59 433.343 1569.27 414.705 1582.63 401.343C1596.34 387.628 1615.15 380.771 1639.06 380.771H1703.93V432.464H1650.13C1641.7 432.464 1635.01 434.925 1630.1 439.848C1625.52 444.771 1623.24 451.453 1623.24 459.893V649.786H1562.59Z" fill="white"/>
<path d="M1856.24 649.786C1826 649.786 1799.46 644.159 1776.6 632.909C1754.1 621.305 1736.53 605.48 1723.87 585.435C1711.21 565.039 1704.88 541.654 1704.88 515.28C1704.88 487.5 1710.51 463.06 1721.76 441.961C1733.01 420.862 1748.48 404.335 1768.17 392.378C1787.86 380.422 1810.53 374.444 1836.2 374.444C1865.03 374.444 1888.76 380.598 1907.39 392.905C1926.03 405.214 1939.74 421.741 1948.53 442.488C1957.67 463.236 1962.24 486.445 1962.24 512.116C1962.24 515.632 1962.07 519.676 1961.71 524.248C1961.36 528.819 1960.83 532.336 1960.13 534.797H1769.22C1771.33 548.863 1776.43 560.644 1784.52 570.138C1792.6 579.281 1802.8 586.314 1815.1 591.24C1827.41 595.809 1841.12 598.097 1856.24 598.097H1928.49V649.786H1856.24ZM1768.7 493.654H1901.59C1901.24 486.972 1900.19 480.291 1898.43 473.61C1897.02 466.928 1894.56 460.599 1891.04 454.62C1887.88 448.642 1883.66 443.544 1878.39 439.323C1873.47 434.752 1867.49 431.235 1860.46 428.774C1853.43 425.961 1845.34 424.554 1836.2 424.554C1825.65 424.554 1816.33 426.664 1808.25 430.884C1800.16 434.752 1793.31 440.027 1787.68 446.709C1782.05 453.038 1777.66 460.423 1774.49 468.862C1771.68 476.951 1769.75 485.214 1768.7 493.654Z" fill="white"/>
<path d="M2079.51 650.566C2055.61 650.566 2036.79 643.709 2023.08 629.995C2009.73 616.28 2003.04 597.642 2003.04 574.083V314.037H2063.17V571.446C2063.17 579.534 2065.62 586.215 2070.55 591.488C2075.47 596.412 2081.97 598.877 2090.06 598.877H2146.49V650.566H2079.51ZM1956.63 433.247V381.554H2147.01V433.247H1956.63Z" fill="white"/>
<path d="M2290.31 656.117C2262.53 656.117 2237.92 649.964 2216.48 637.656C2195.03 624.994 2177.98 608.117 2165.32 587.017C2153.02 565.567 2146.87 541.654 2146.87 515.28C2146.87 488.906 2153.02 465.17 2165.32 444.071C2177.98 422.62 2195.03 405.741 2216.48 393.433C2237.92 380.773 2262.53 374.444 2290.31 374.444C2317.73 374.444 2342.17 380.773 2363.61 393.433C2385.06 405.741 2401.93 422.445 2414.24 443.544C2426.9 464.643 2433.23 488.555 2433.23 515.28C2433.23 541.654 2426.9 565.567 2414.24 587.017C2401.93 608.117 2385.06 624.994 2363.61 637.656C2342.17 649.964 2317.73 656.117 2290.31 656.117ZM2290.31 604.422C2306.83 604.422 2321.25 600.556 2333.55 592.818C2345.86 584.731 2355.35 574.006 2362.03 560.644C2368.71 547.281 2372.05 532.159 2372.05 515.28C2372.05 498.753 2368.71 483.808 2362.03 470.445C2355.35 456.73 2345.86 446.005 2333.55 438.269C2321.25 430.181 2306.83 426.137 2290.31 426.137C2273.43 426.137 2258.84 430.181 2246.54 438.269C2234.59 446.005 2225.09 456.555 2218.06 469.917C2211.38 483.28 2208.04 498.401 2208.04 515.28C2208.04 531.808 2211.38 546.929 2218.06 560.644C2225.09 574.006 2234.59 584.731 2246.54 592.818C2258.84 600.556 2273.43 604.422 2290.31 604.422Z" fill="white"/>
<path d="M954.538 649.29V280.058H1109.59C1133.14 280.058 1154.59 285.508 1173.92 296.41C1193.62 306.959 1209.26 321.904 1220.86 341.245C1232.46 360.234 1238.26 382.389 1238.26 407.708C1238.26 432.675 1232.46 454.828 1220.86 474.169C1209.61 493.51 1194.14 508.632 1174.45 519.533C1155.12 530.082 1133.32 535.357 1109.06 535.357H1017.3V649.29H954.538ZM1017.3 479.972H1101.68C1115.39 479.972 1127.69 477.159 1138.59 471.532C1149.84 465.906 1158.63 457.642 1164.96 446.74C1171.64 435.839 1174.98 423.004 1174.98 408.235C1174.98 392.762 1171.64 379.751 1164.96 369.201C1158.63 358.3 1149.84 350.037 1138.59 344.41C1127.69 338.432 1115.56 335.443 1102.2 335.443H1017.3V479.972Z" fill="white"/>
</g>
<defs>
<clipPath id="clip0_19_8">
<rect width="2435" height="934" fill="white"/>
</clipPath>
</defs>
</svg>
