<svg width="24" height="24" viewBox="0 0 24 24" fill="none" xmlns="http://www.w3.org/2000/svg">
<path d="M24 12C24 18.6274 18.6274 24 12 24C5.37258 24 0 18.6274 0 12C0 5.37258 5.37258 0 12 0C18.6274 0 24 5.37258 24 12Z" fill="#323D53"/>
<path d="M16.8939 7.51449L16.466 7.43786C16.1416 7.37964 15.8169 7.32141 15.4924 7.26468C14.6902 7.12443 13.8797 6.86002 13.0146 6.45619C12.8023 6.35695 12.5917 6.2539 12.3811 6.15086L12.2171 6.07059C12.2038 6.06408 12.1922 6.05432 12.1801 6.04529C12.17 6.03767 12.1598 6.02995 12.1495 6.02288C12.1282 6.00791 12.103 6 12.0771 6H11.942C11.9213 6 11.9011 6.00502 11.8827 6.01479L11.7511 6.08519C11.6576 6.1356 11.5644 6.18601 11.4691 6.2327C10.7934 6.56417 10.0629 6.89693 9.29853 7.08593C8.93085 7.1767 8.55032 7.2486 8.18236 7.31817C8.04377 7.3443 7.90548 7.37043 7.76734 7.39759C7.61576 7.42735 7.46325 7.45321 7.31103 7.47916L7.10655 7.5145C7.04504 7.52529 7 7.5796 7 7.64303V8.23241C7 8.23948 7.00064 8.24655 7.00174 8.25362L7.00806 8.2884C7.01108 8.30374 7.01446 8.31881 7.0151 8.33444L7.03286 8.69567C7.05501 9.1501 7.07725 9.60433 7.09638 10.0589C7.12394 10.7114 7.20751 11.312 7.35204 11.8952C7.51332 12.5464 7.72649 13.3062 8.08293 14.0049C8.70143 15.2171 9.42023 16.1565 10.2809 16.8768L10.3306 16.9183C10.7244 17.248 11.1315 17.5891 11.598 17.8424C11.6797 17.8866 11.7689 17.9291 11.8882 17.9799C11.9189 17.9929 11.9542 18 11.989 18C11.9958 18 12.0028 17.9997 12.0097 17.9991C12.0102 17.9991 12.0106 17.999 12.0111 17.9989V17.9989C12.0115 17.9988 12.0119 17.9987 12.0123 17.9986C12.0369 17.9964 12.0587 17.9912 12.0788 17.9824L12.1318 17.9593C12.2454 17.9098 12.363 17.8587 12.4748 17.7945C12.8381 17.5857 13.1917 17.3307 13.5551 17.0144C13.983 16.6424 14.475 16.1896 14.8828 15.6515C15.6792 14.6005 16.2156 13.5304 16.5227 12.3803C16.6722 11.821 16.8311 11.1558 16.8784 10.4637C16.9027 10.1085 16.9198 9.74727 16.9363 9.39822C16.9439 9.23658 16.9517 9.07494 16.96 8.91339L17 8.15364V7.64285C17 7.5797 16.9553 7.52556 16.8939 7.51449Z" fill="#4DE3B0"/>
</svg>
