<svg width="264" height="264" viewBox="0 0 264 264" fill="none" xmlns="http://www.w3.org/2000/svg">
<g clip-path="url(#clip0_660_36)">
<path d="M264 132C264 204.901 204.901 264 132 264C59.0984 264 0 204.901 0 132C0 59.0984 59.0984 0 132 0C204.901 0 264 59.0984 264 132Z" fill="#323D53"/>
<g clip-path="url(#clip1_660_36)">
<path d="M65.0485 126.311V194.936C65.0485 203.243 71.8058 210 80.1125 210H121.957V126.311H65.0485Z" fill="#E34D4D"/>
<path d="M142.043 126.311V210H183.887C192.194 210 198.952 203.243 198.952 194.936V126.311H142.043Z" fill="#E34D4D"/>
<path d="M198.951 86.1398H166.293C170.1 83.6884 173.675 80.8139 176.955 77.5338C178.917 75.5742 178.917 72.3947 176.955 70.4333C174.997 68.4719 171.816 68.4719 169.855 70.4333C165.093 75.1938 159.599 78.9484 153.63 81.592C155.846 78.9198 157.107 75.5309 157.107 71.9781V71.0842C157.107 66.1835 154.826 61.7296 150.851 58.8625C146.877 56.0003 141.931 55.2405 137.279 56.7932C135.282 57.4579 133.5 58.5127 132 59.8533C130.5 58.5127 128.717 57.4582 126.721 56.7932C122.065 55.2354 117.122 55.997 113.149 58.8625C109.174 61.7293 106.893 66.1835 106.893 71.0842V71.9784C106.893 75.5312 108.153 78.9198 110.369 81.5926C104.401 78.949 98.907 75.1944 94.145 70.4339C92.1836 68.4725 89.0029 68.4725 87.0445 70.4339C85.0831 72.3953 85.0831 75.5745 87.0445 77.5344C90.3248 80.8145 93.8999 83.689 97.7066 86.1404H65.0481C59.5014 86.1404 55.0053 90.6365 55.0053 96.1832V111.247C55.0053 114.02 57.2536 116.268 60.0265 116.268H203.972C206.745 116.268 208.993 114.02 208.993 111.247V96.1832C208.994 90.6359 204.497 86.1398 198.951 86.1398ZM126.978 81.5691L119.096 76.1048C117.743 75.1664 116.935 73.6237 116.935 71.9775V71.0836C116.935 69.4488 117.696 67.9651 119.021 67.0104C119.893 66.3812 120.907 66.0557 121.94 66.0557C122.477 66.0557 123.016 66.1441 123.546 66.3189C125.599 67.0038 126.978 68.9179 126.978 71.0836V81.5691ZM147.064 71.9781C147.064 73.624 146.256 75.167 144.904 76.1036L137.021 81.5694V71.0839C137.021 68.9183 138.401 67.0041 140.453 66.3192C140.983 66.1444 141.522 66.056 142.059 66.056C143.092 66.056 144.105 66.3815 144.978 67.0107C146.304 67.9654 147.064 69.4494 147.064 71.0839V71.9781Z" fill="#E34D4D"/>
</g>
</g>
<defs>
<clipPath id="clip0_660_36">
<rect width="264" height="264" fill="white"/>
</clipPath>
<clipPath id="clip1_660_36">
<rect width="154" height="154" fill="white" transform="translate(55 56)"/>
</clipPath>
</defs>
</svg>
